# xmcd
#
# Track frame offsets:
# 150
# 21445
# 36238
# 44799
# 60220
# 82730
# 98062
# 109745
# 131809
# 149296
#
# Disc length: 2134 seconds
#
#
# Revision: 0
# Processed by: cddbd v1.5.2PL0 Copyright (c) Steve Scherf et al.
# Submitted via: FreeRIP 2.951 
#
DISCID=8408540a
DTITLE=B.B. King - B.B. King (Disk 1)
DYEAR=2005
DGENRE=Blues
TTITLE0=Everyday I Have The Blues (Live)
TTITLE1=B.B. Boogie
TTITLE2=A New Way Of Driving
TTITLE3=Walkin' And Cryin'
TTITLE4=The Thrill Is Gone (Live)
TTITLE5=How Blue Can You Get (Live)
TTITLE6=Paying The Cost To Be The Boss (Live)
TTITLE7=You've Done Lost Your Good Thing Now
TTITLE8=That Evil Child
TTITLE9=Catfish Blues
EXTD=
EXTT0=
EXTT1=
EXTT2=
EXTT3=
EXTT4=
EXTT5=
EXTT6=
EXTT7=
EXTT8=
EXTT9=
PLAYORDER=
